<!DOCTYPE svg PUBLIC "-//W3C//DTD SVG 1.1//EN" "http://www.w3.org/Graphics/SVG/1.1/DTD/svg11.dtd">
<!-- Uploaded to: SVG Repo, www.svgrepo.com, Transformed by: SVG Repo Mixer Tools -->
<svg width="181px" height="181px" viewBox="-4.8 -4.8 57.60 57.60" xmlns="http://www.w3.org/2000/svg" fill="#8b4646" stroke="#8b4646" stroke-width="3.312">
<g id="SVGRepo_bgCarrier" stroke-width="0"/>
<g id="SVGRepo_tracerCarrier" stroke-linecap="round" stroke-linejoin="round"/>
<g id="SVGRepo_iconCarrier">
<defs>
<style>.a{fill:none;stroke:#c4b681;stroke-linecap:round;stroke-linejoin:round;}</style>
</defs>
<path class="a" d="M40.5,5.5H7.5a2,2,0,0,0-2,2v33a2,2,0,0,0,2,2h33a2,2,0,0,0,2-2V7.5A2,2,0,0,0,40.5,5.5Z"/>
<path class="a" d="M12.8789,22.3318A5.5606,5.5606,0,0,1,18.44,16.7713h0A5.56,5.56,0,0,1,24,22.3318v8.8969"/>
<line class="a" x1="12.8789" y1="16.7713" x2="12.8789" y2="31.2287"/>
<path class="a" d="M24,22.3318a5.56,5.56,0,0,1,5.5605-5.5605h0a5.5606,5.5606,0,0,1,5.5606,5.5605v8.8969"/>
</g>
</svg>